# xmcd
#
# Track frame offsets: 
#        150
#        7735
#        23604
#        43512
#        45207
#        60234
#        73426
#        97996
#        110435
#        125041
#        144581
#        161682
#        172981
#        193489
#        210543
#        230230
#        246727
#        264034
#        282930
#        296654
#        308704
#        326427
#        344911
#
# Disc length: 4798 seconds
#
# Revision: 0
# Processed by: cddbd v1.5.2PL0 Copyright (c) Steve Scherf et al.
# Submitted via: ExactAudioCopy v1.1
#
DISCID=5612bc17
DTITLE=X-Clan - Return From Mecca
DYEAR=2007
DGENRE=Hip-Hop
TTITLE0=X Clan Album Intro
TTITLE1=Aragorn
TTITLE2=Voodoo (feat. RBX and Quazedelic)
TTITLE3=Hovercraft Intro
TTITLE4=Why U Doin That
TTITLE5=Weapon X
TTITLE6=Speak The Truth (feat. KRS-One)
TTITLE7=Positrons
TTITLE8=Mecca
TTITLE9=Prison (feat. Christian Scott)
TTITLE10=Atonement (feat. Jah Orah)
TTITLE11=Brother, Brother
TTITLE12=Funky 4 U (feat. Chali 2na Of Jurassic 5)
TTITLE13=Self Destruct
TTITLE14=Space People (feat. Quazedelic)
TTITLE15=Trump Card (feat. Hannah Barbera)
TTITLE16=To The East (feat. Abstract Rude and YZ)
TTITLE17=Locomotion (feat. Brad X Of Kottonmouth Kings and Tri State Of 
TTITLE17=One Session)
TTITLE18=Americans (feat. Jacoby Shaddix Of Papa Roach)
TTITLE19=3rd Eyes On Me
TTITLE20=Culture United (feat. Damian Marley)
TTITLE21=All I Want Is Respect (feat. Tech N9ne)
TTITLE22=Cradle To The Stage (Bonus Track)
EXTD=
EXTT0=
EXTT1=
EXTT2=
EXTT3=
EXTT4=
EXTT5=
EXTT6=
EXTT7=
EXTT8=
EXTT9=
EXTT10=
EXTT11=
EXTT12=
EXTT13=
EXTT14=
EXTT15=
EXTT16=
EXTT17=
EXTT18=
EXTT19=
EXTT20=
EXTT21=
EXTT22=
PLAYORDER=
